<svg width="32" height="24" viewBox="0 0 32 24" fill="none" xmlns="http://www.w3.org/2000/svg">
<path d="M4.40368 22.7829V3.54741H0V0H8.5627V22.7829H4.40368Z" fill="#1F1F1F"/>
<path d="M16.8294 23.1499C15.6673 23.1499 14.6581 22.9562 13.8019 22.5688C12.9456 22.1815 12.283 21.631 11.8141 20.9175C11.3452 20.1835 11.1107 19.3374 11.1107 18.3792C11.1107 17.4618 11.3146 16.6463 11.7224 15.9327C12.1301 15.1988 12.7621 14.5872 13.6184 14.0979C14.4746 13.6086 15.5552 13.262 16.86 13.0581L22.3034 12.1713V15.2294L17.6245 16.0245C16.8294 16.1672 16.2382 16.422 15.8508 16.789C15.4634 17.156 15.2698 17.6351 15.2698 18.2263C15.2698 18.7972 15.4838 19.2559 15.912 19.6025C16.3605 19.9287 16.9109 20.0918 17.5633 20.0918C18.3992 20.0918 19.1332 19.9185 19.7652 19.5719C20.4176 19.2049 20.9171 18.7054 21.2637 18.0734C21.6306 17.4414 21.8141 16.7482 21.8141 15.9939V11.7126C21.8141 10.999 21.5287 10.4078 20.9578 9.93885C20.4074 9.44956 19.6734 9.20491 18.756 9.20491C17.8997 9.20491 17.1352 9.43936 16.4624 9.90827C15.81 10.3568 15.3309 10.9582 15.0251 11.7126L11.7529 10.1223C12.0791 9.24568 12.5888 8.49135 13.282 7.85934C13.9955 7.20694 14.8314 6.69726 15.7896 6.33029C16.7478 5.96331 17.7876 5.77983 18.9089 5.77983C20.2749 5.77983 21.4777 6.03467 22.5175 6.54435C23.5572 7.03365 24.3625 7.72682 24.9334 8.62387C25.5246 9.50053 25.8202 10.5301 25.8202 11.7126V22.7829H22.0282V19.9389L22.8844 19.8777C22.4563 20.5913 21.9466 21.1927 21.3554 21.682C20.7642 22.1509 20.0914 22.5179 19.337 22.7829C18.5827 23.0276 17.7468 23.1499 16.8294 23.1499Z" fill="#F0B100"/>
<path d="M27.9939 22.7829V6.1468H32V22.7829H27.9939ZM27.9939 4.28135V0H32V4.28135H27.9939Z" fill="#F0B100"/>
</svg>
